<svg id="Laag_1" data-name="Laag 1" xmlns="http://www.w3.org/2000/svg" viewBox="0 0 1040 1079"><defs><style>.cls-1{fill:#ead7d7;}</style></defs><title>pp-overlay</title><path class="cls-1" d="M-.5,1079.5h186c46.95-127.35,110.4-180.51,162-205,86.77-41.18,158.43-10,202-66,32.79-42.11,26-103.08,18-174-12-106.65-47.34-132.93-26-173,28.39-53.31,105.6-34.22,131-92,16.23-36.92-11.27-53.86,5-101,15.16-43.92,56.79-80.65,101-90,46.39-9.81,66.28,16.73,103,15,41.64-2,96.68-39.89,158-193H-.5Z" transform="translate(0.5 -0.5)"/></svg>